<?xml version="1.0" encoding="utf-8"?>
<!-- Generator: Adobe Illustrator 20.0.0, SVG Export Plug-In . SVG Version: 6.00 Build 0)  -->
<svg version="1.1" id="Calque_1" xmlns="http://www.w3.org/2000/svg" xmlns:xlink="http://www.w3.org/1999/xlink" x="0px" y="0px"
	 viewBox="0 0 140.6 91.6" style="enable-background:new 0 0 140.6 91.6;" xml:space="preserve">
<style type="text/css">
	.st0{fill:#6BDD53;}
</style>
<title>Fichier 3</title>
<g id="Calque_2">
	<g id="Calque_1-2">
		<path class="st0" d="M62.3,0.2v10.3c-13.5,1.3-23.2,7.7-28,21c8.2,1.7,14.9,5.3,19.8,11.8c7.5,9.9,8.1,23.3,1.7,33.9
			c-7,11.2-19.3,16.4-32.7,13.7C11.3,88.3,2.3,78.6,0.5,66.6c-2.2-16.3,3.2-30.7,13.3-43.3C25.7,8.5,41.5,1,60.5,0
			C61.1,0,61.7,0.1,62.3,0.2z"/>
		<path class="st0" d="M140.6,0.2v10.3c-13.5,1.3-23.2,7.7-28,21c8.2,1.7,14.9,5.3,19.8,11.8c7.5,9.9,8.1,23.3,1.7,33.9
			c-7,11.2-19.3,16.4-32.7,13.7c-11.9-2.6-20.9-12.2-22.7-24.2C76.6,50.3,82,35.9,92.1,23.4C104,8.5,119.8,1,138.8,0
			C139.4,0,140,0.1,140.6,0.2z"/>
	</g>
</g>
</svg>
